<?xml version="1.0" encoding="utf-8"?>
<!-- Generator: Adobe Illustrator 22.0.0, SVG Export Plug-In . SVG Version: 6.00 Build 0)  -->
<svg version="1.1" id="Layer_1" xmlns="http://www.w3.org/2000/svg" xmlns:xlink="http://www.w3.org/1999/xlink" x="0px" y="0px"
	 viewBox="0 0 1440 650" style="enable-background:new 0 0 1440 650;" xml:space="preserve">
<style type="text/css">
	.st0{fill:#231F20;}
	.st1{display:none;}
	.st2{display:inline;}
	.st3{display:inline;fill:#231F20;}
</style>
<g>
	<path class="st0" d="M466.8,262.5l-1.7,0.5l10.6,34.7c-2.1-0.7-5.1-0.1-7.8,1.6c-4,2.5-5.9,6.5-4.4,9c1.6,2.5,6,2.5,10,0
		c3.6-2.2,5.5-5.7,4.7-8.2C478,299.1,466.8,262.5,466.8,262.5z"/>
	<path class="st0" d="M441.4,277.5l-1.7,0.5l10.6,34.7c-2.1-0.7-5.1-0.1-7.8,1.6c-4,2.5-5.9,6.5-4.4,9c1.6,2.5,6,2.5,10,0
		c3.6-2.2,5.5-5.7,4.7-8.2C452.6,314.1,441.4,277.5,441.4,277.5z"/>
	<polygon class="st0" points="469.3,270.6 442.3,286.1 439.5,276.9 466.5,261.4 	"/>
</g>
<g class="st1">
	<g class="st2">
		<path class="st0" d="M421.3,129.9l-4.4-3.4l20.2,30.1c-2.2,0-4.9,1.3-7,3.8c-3.1,3.5-3.8,7.9-1.5,9.9c2.2,1.9,6.5,0.7,9.6-2.9
			c2.8-3.2,3.6-7.1,2.1-9.2C439.7,157.3,421.3,129.9,421.3,129.9z"/>
	</g>
	<path class="st3" d="M420.9,132.4l-3.9-5.9c0,0,0.7-0.7,2.2,0.1c9,4.7,10.9-4.4,18.3,2.3c0.5,0.5,0,1-0.5,0.6
		C430.1,125.2,429.5,134.2,420.9,132.4z"/>
	<path class="st3" d="M424.8,138.2l-3.9-5.9c0,0,0.7-0.7,2.2,0.1c9,4.7,10.9-4.4,18.3,2.3c0.5,0.5,0,1-0.5,0.6
		C434,130.9,433.4,139.9,424.8,138.2z"/>
</g>
<g class="st1">
	<g class="st2">
		<path class="st0" d="M583.3,399.7l-5.3-1.6l29.6,20.9c-2.1,0.8-4.1,3-5.2,6c-1.6,4.4-0.7,8.8,2.1,9.8c2.8,1,6.3-1.7,7.9-6.1
			c1.5-3.9,0.8-7.9-1.3-9.4C610.3,418.8,583.3,399.7,583.3,399.7z"/>
	</g>
	<path class="st3" d="M583.8,402.2l-5.8-4.1c0,0,0.4-0.9,2.1-0.7c10.1,1.2,8.6-8,18-4.4c0.6,0.2,0.4,0.9-0.2,0.8
		C589.8,392.2,592.4,400.8,583.8,402.2z"/>
	<path class="st3" d="M589.5,406.2l-5.8-4.1c0,0,0.4-0.9,2.1-0.7c10.1,1.2,8.6-8,18-4.4c0.6,0.3,0.4,0.9-0.2,0.8
		C595.5,396.2,598.1,404.8,589.5,406.2z"/>
</g>
<path class="st1" d="M521,282c-2,4.8-2.5,9.2-1.6,13.1c1,4.4,3.4,8.2,7.3,11.2c4.1,3.2,8.4,4.3,12.8,3.4c1.5-0.3,2.8-0.8,4.1-1.3
	c0.7,1.4,1.4,2.8,2,4.2c0.9,1.9,1.5,3.5,1.8,5c0.4,2,0.3,3.7-0.4,5.2c-0.8,1.6-2,2.6-3.9,3c-0.8,0.2-1.6,0.2-2.3,0
	c0.7-0.4,1.2-0.9,1.7-1.5c0.9-1.2,1.1-2.6,0.8-4.2c-0.4-1.6-1.1-2.8-2.3-3.7c-1.3-0.9-2.7-1.2-4.3-0.9c-1.6,0.4-2.9,1.4-3.7,3.1
	c-0.7,1.5-0.9,3.1-0.5,4.7c0.5,2.4,2,4.1,4.4,5.2c2.1,0.9,4.3,1.1,6.7,0.6c1.3-0.3,2.5-0.8,3.6-1.5c0.9-0.6,1.7-1.3,2.4-2.2
	c1.7-2.1,2.2-4.4,1.7-6.9c-0.4-1.9-1.1-4-2.2-6.4l-2.5-5.3c2-1.4,3.4-3.2,4.3-5.5c0.9-2.4,1.1-5,0.5-7.7c-0.7-3.3-2.4-6-4.8-8
	c-2.7-2.2-5.8-3-9.1-2.3c-0.4,0.1-0.8,0.2-1.2,0.3l-2.9-6.6c1.9-2.9,3.2-6.2,3.7-9.9c0.6-3.6,0.5-7.3-0.4-11
	c-0.5-2.2-1.5-4.7-3.1-7.6c-2.2-3.9-4.2-5.6-6.1-5.1c-0.7,0.2-1.3,0.7-2,1.8c-1.6,2.6-2.5,5.5-2.7,8.5c-0.1,2.3,0.2,5.2,1,8.7
	c0.4,1.7,1.5,4.6,3.4,8.6C524.1,275.7,522,279.4,521,282z M545.3,295.3c0.6,2.2,0.6,6.3-0.6,7.7l-5.1-11.6
	C542.1,291.2,544.6,292.7,545.3,295.3z M528,265c-0.5-2.2-0.6-4.7-0.4-7.5c0.3-3.5,1.1-4.7,1.8-5.2c0.2-0.1,0.4-0.2,0.6-0.3
	c1-0.2,2.1-0.1,2.6,2.5c0.5,2.2,0.3,4.7-0.6,7.5c-0.7,2.3-1.7,4.3-2.9,6C528.6,267.3,528.2,266.2,528,265z M531,280.1l2.1,5
	c-1.5,1.2-2.7,2.8-3.5,4.7c-0.9,2.2-1.2,4.4-0.7,6.5c0.5,2.2,1.6,4.1,3.2,5.5c0.8,0.8,1.9,1.4,3,1.8c1.8,0.7,3.5,0.1,3.6-0.6
	c0.1-0.7-1.2-1.3-2.3-2.3c-0.7-0.6-1.1-1.4-1.4-2.4c-0.6-2.1,0.1-4.3,1.7-5.7l5.6,12.8c-0.9,0.5-1.9,0.8-3,1.1
	c-2.9,0.6-5.8,0.2-8.6-1.3c-2.9-1.6-4.6-3.7-5.3-6.6C524.1,293.3,526.1,287,531,280.1z"/>
</svg>
